<svg width="615" height="566" xmlns="http://www.w3.org/2000/svg" xmlns:xlink="http://www.w3.org/1999/xlink" xml:space="preserve" overflow="hidden"><g transform="translate(-332 -79)"><path d="M359.955 91.8784C389.559 91.8784 413.558 115.877 413.558 145.481 413.558 145.492 413.558 145.502 413.558 145.512 413.558 165.309 402.849 182.767 386.771 191.886L386.771 225.931 413.558 225.931C517.186 225.931 601.197 309.93 601.214 413.558L628.031 413.558C642.841 413.558 654.848 425.564 654.848 440.374L654.848 520.795C654.848 535.605 642.841 547.611 628.031 547.611L601.214 547.611 601.214 574.428C601.214 604.032 577.216 628.031 547.611 628.031L172.298 628.031C142.694 628.048 118.682 604.062 118.665 574.458 118.665 574.448 118.665 574.438 118.665 574.428L118.665 547.611 91.8784 547.611C77.0683 547.611 65.0618 535.605 65.0618 520.795L65.0618 440.405C65.0452 425.594 77.038 413.575 91.8482 413.558 91.8588 413.558 91.8686 413.558 91.8784 413.558L118.665 413.558C118.682 309.93 202.693 225.931 306.321 225.931L333.138 225.931 333.138 191.886C316.499 182.387 306.254 164.672 306.321 145.512 306.305 115.908 330.29 91.8953 359.895 91.8784 359.915 91.8784 359.935 91.8784 359.955 91.8784M239.31 386.741C202.3 386.741 172.298 416.743 172.298 453.753 172.298 453.763 172.298 453.773 172.298 453.783 172.298 490.793 202.3 520.795 239.31 520.795 276.319 520.795 306.321 490.793 306.321 453.783 306.321 416.773 276.319 386.771 239.31 386.771M480.57 386.771C443.56 386.771 413.558 416.773 413.558 453.783 413.558 490.793 443.56 520.795 480.57 520.795 517.579 520.795 547.581 490.793 547.581 453.783 547.581 416.773 517.579 386.771 480.57 386.771Z" fill="#2CC985" transform="matrix(1.00111 0 0 1 279.59 0.22031)"/></g></svg>